<mxfile host="65bd71144e">
    <diagram id="Yn4MbTQEsnYbCR_38Maa" name="페이지-1">
        <mxGraphModel dx="486" dy="1067" grid="1" gridSize="10" guides="1" tooltips="1" connect="1" arrows="1" fold="1" page="1" pageScale="1" pageWidth="827" pageHeight="1169" math="0" shadow="0">
            <root>
                <mxCell id="0"/>
                <mxCell id="1" parent="0"/>
                <mxCell id="28" value="" style="rounded=0;whiteSpace=wrap;html=1;" parent="1" vertex="1">
                    <mxGeometry x="827" width="823" height="500" as="geometry"/>
                </mxCell>
                <mxCell id="2" value="Index" style="rounded=0;whiteSpace=wrap;html=1;" parent="1" vertex="1">
                    <mxGeometry x="851.2058823529412" y="77.83783783783784" width="96.82352941176471" height="58.37837837837838" as="geometry"/>
                </mxCell>
                <mxCell id="3" value="Notice List" style="rounded=0;whiteSpace=wrap;html=1;" parent="1" vertex="1">
                    <mxGeometry x="1327.2549019607843" y="204.32432432432432" width="96.82352941176471" height="58.37837837837838" as="geometry"/>
                </mxCell>
                <mxCell id="5" value="Notice Detail" style="rounded=0;whiteSpace=wrap;html=1;fontStyle=1" parent="1" vertex="1">
                    <mxGeometry x="1327.2549019607843" y="77.83783783783784" width="96.82352941176471" height="58.37837837837838" as="geometry"/>
                </mxCell>
                <mxCell id="11" style="edgeStyle=none;html=1;entryX=0;entryY=0.5;entryDx=0;entryDy=0;" parent="1" source="9" target="5" edge="1">
                    <mxGeometry relative="1" as="geometry"/>
                </mxCell>
                <mxCell id="13" style="edgeStyle=none;html=1;entryX=0.5;entryY=0;entryDx=0;entryDy=0;" parent="1" source="9" target="2" edge="1">
                    <mxGeometry relative="1" as="geometry">
                        <Array as="points">
                            <mxPoint x="1153.7794117647059" y="38.91891891891892"/>
                            <mxPoint x="899.6176470588235" y="38.91891891891892"/>
                        </Array>
                    </mxGeometry>
                </mxCell>
                <mxCell id="9" value="Index의 NoticeCard의&lt;br&gt;Button을 눌렀나요?" style="rhombus;whiteSpace=wrap;html=1;" parent="1" vertex="1">
                    <mxGeometry x="1077.127450980392" y="68.10810810810811" width="153.30392156862746" height="77.83783783783784" as="geometry"/>
                </mxCell>
                <mxCell id="10" style="edgeStyle=none;html=1;entryX=0;entryY=0.5;entryDx=0;entryDy=0;" parent="1" source="2" target="9" edge="1">
                    <mxGeometry relative="1" as="geometry"/>
                </mxCell>
                <mxCell id="12" value="Yes" style="text;html=1;strokeColor=none;fillColor=none;align=center;verticalAlign=middle;whiteSpace=wrap;rounded=0;" parent="1" vertex="1">
                    <mxGeometry x="1214.2941176470588" y="107.02702702702703" width="48.411764705882355" height="29.18918918918919" as="geometry"/>
                </mxCell>
                <mxCell id="14" value="No" style="text;html=1;strokeColor=none;fillColor=none;align=center;verticalAlign=middle;whiteSpace=wrap;rounded=0;" parent="1" vertex="1">
                    <mxGeometry x="1149.7450980392157" y="38.91891891891892" width="48.411764705882355" height="29.18918918918919" as="geometry"/>
                </mxCell>
                <mxCell id="16" style="edgeStyle=none;html=1;entryX=0;entryY=0.5;entryDx=0;entryDy=0;" parent="1" source="15" target="3" edge="1">
                    <mxGeometry relative="1" as="geometry"/>
                </mxCell>
                <mxCell id="20" style="edgeStyle=none;html=1;entryX=0.5;entryY=1;entryDx=0;entryDy=0;exitX=0.5;exitY=1;exitDx=0;exitDy=0;" parent="1" source="15" target="2" edge="1">
                    <mxGeometry relative="1" as="geometry">
                        <Array as="points">
                            <mxPoint x="1153.7794117647059" y="301.6216216216216"/>
                            <mxPoint x="899.6176470588235" y="301.6216216216216"/>
                        </Array>
                    </mxGeometry>
                </mxCell>
                <mxCell id="15" value="Index의 공지사항&lt;br&gt;Button을 눌렀나요?" style="rhombus;whiteSpace=wrap;html=1;" parent="1" vertex="1">
                    <mxGeometry x="1077.127450980392" y="194.5945945945946" width="153.30392156862746" height="77.83783783783784" as="geometry"/>
                </mxCell>
                <mxCell id="18" style="edgeStyle=none;html=1;entryX=0;entryY=0.5;entryDx=0;entryDy=0;exitX=1;exitY=0.5;exitDx=0;exitDy=0;" parent="1" source="2" target="15" edge="1">
                    <mxGeometry relative="1" as="geometry">
                        <Array as="points">
                            <mxPoint x="988.3725490196078" y="107.02702702702703"/>
                            <mxPoint x="988.3725490196078" y="165.40540540540542"/>
                            <mxPoint x="988.3725490196078" y="233.51351351351352"/>
                        </Array>
                    </mxGeometry>
                </mxCell>
                <mxCell id="17" value="Yes" style="text;html=1;strokeColor=none;fillColor=none;align=center;verticalAlign=middle;whiteSpace=wrap;rounded=0;" parent="1" vertex="1">
                    <mxGeometry x="1222.3627450980393" y="233.51351351351352" width="48.411764705882355" height="29.18918918918919" as="geometry"/>
                </mxCell>
                <mxCell id="21" value="No" style="text;html=1;strokeColor=none;fillColor=none;align=center;verticalAlign=middle;whiteSpace=wrap;rounded=0;" parent="1" vertex="1">
                    <mxGeometry x="1149.7450980392157" y="282.1621621621622" width="48.411764705882355" height="29.18918918918919" as="geometry"/>
                </mxCell>
                <mxCell id="25" style="edgeStyle=none;html=1;entryX=1;entryY=0.5;entryDx=0;entryDy=0;" parent="1" source="22" target="5" edge="1">
                    <mxGeometry relative="1" as="geometry">
                        <Array as="points">
                            <mxPoint x="1554.7901960784313" y="107.02702702702703"/>
                        </Array>
                    </mxGeometry>
                </mxCell>
                <mxCell id="26" style="edgeStyle=none;html=1;entryX=0.5;entryY=1;entryDx=0;entryDy=0;" parent="1" source="22" target="3" edge="1">
                    <mxGeometry relative="1" as="geometry">
                        <Array as="points">
                            <mxPoint x="1553.1764705882354" y="301.6216216216216"/>
                            <mxPoint x="1375.6666666666665" y="301.6216216216216"/>
                        </Array>
                    </mxGeometry>
                </mxCell>
                <mxCell id="22" value="Notice List의 Card를&lt;br&gt;눌렀나요?" style="rhombus;whiteSpace=wrap;html=1;" parent="1" vertex="1">
                    <mxGeometry x="1478.1382352941177" y="194.5945945945946" width="153.30392156862746" height="77.83783783783784" as="geometry"/>
                </mxCell>
                <mxCell id="23" style="edgeStyle=none;html=1;entryX=0;entryY=0.5;entryDx=0;entryDy=0;" parent="1" source="3" target="22" edge="1">
                    <mxGeometry relative="1" as="geometry"/>
                </mxCell>
                <mxCell id="24" value="Yes" style="text;html=1;strokeColor=none;fillColor=none;align=center;verticalAlign=middle;whiteSpace=wrap;rounded=0;" parent="1" vertex="1">
                    <mxGeometry x="1553.1764705882354" y="165.40540540540542" width="48.411764705882355" height="29.18918918918919" as="geometry"/>
                </mxCell>
                <mxCell id="27" value="No" style="text;html=1;strokeColor=none;fillColor=none;align=center;verticalAlign=middle;whiteSpace=wrap;rounded=0;" parent="1" vertex="1">
                    <mxGeometry x="1553.1764705882354" y="272.43243243243245" width="48.411764705882355" height="29.18918918918919" as="geometry"/>
                </mxCell>
                <mxCell id="33" style="edgeStyle=none;html=1;entryX=0;entryY=0.5;entryDx=0;entryDy=0;" edge="1" parent="1" source="31" target="32">
                    <mxGeometry relative="1" as="geometry"/>
                </mxCell>
                <mxCell id="31" value="Drawer" style="rounded=0;whiteSpace=wrap;html=1;" vertex="1" parent="1">
                    <mxGeometry x="851.2058823529412" y="379.9978378378379" width="96.82352941176471" height="58.37837837837838" as="geometry"/>
                </mxCell>
                <mxCell id="34" style="edgeStyle=none;html=1;entryX=0;entryY=0.5;entryDx=0;entryDy=0;" edge="1" parent="1" source="32" target="3">
                    <mxGeometry relative="1" as="geometry">
                        <Array as="points">
                            <mxPoint x="1280" y="409"/>
                            <mxPoint x="1280" y="234"/>
                        </Array>
                    </mxGeometry>
                </mxCell>
                <mxCell id="36" style="edgeStyle=none;html=1;entryX=0.5;entryY=1;entryDx=0;entryDy=0;" edge="1" parent="1" source="32" target="31">
                    <mxGeometry relative="1" as="geometry">
                        <Array as="points">
                            <mxPoint x="1154" y="470"/>
                            <mxPoint x="900" y="470"/>
                        </Array>
                    </mxGeometry>
                </mxCell>
                <mxCell id="32" value="Drawer의 공지사항&lt;br&gt;Button을 눌렀나요?" style="rhombus;whiteSpace=wrap;html=1;" vertex="1" parent="1">
                    <mxGeometry x="1077.127450980392" y="370.26459459459466" width="153.30392156862746" height="77.83783783783784" as="geometry"/>
                </mxCell>
                <mxCell id="35" value="Yes" style="text;html=1;strokeColor=none;fillColor=none;align=center;verticalAlign=middle;whiteSpace=wrap;rounded=0;" vertex="1" parent="1">
                    <mxGeometry x="1222.3627450980393" y="418.9135135135135" width="48.411764705882355" height="29.18918918918919" as="geometry"/>
                </mxCell>
                <mxCell id="37" value="No" style="text;html=1;strokeColor=none;fillColor=none;align=center;verticalAlign=middle;whiteSpace=wrap;rounded=0;" vertex="1" parent="1">
                    <mxGeometry x="1149.7450980392157" y="450.0021621621622" width="48.411764705882355" height="29.18918918918919" as="geometry"/>
                </mxCell>
            </root>
        </mxGraphModel>
    </diagram>
</mxfile>